<svg xmlns="http://www.w3.org/2000/svg" width="128" height="128" viewBox="0 0 33.867 33.867"><g style="display:inline"><path d="M11.377 11.377V22.49l1.588 1.323h.264v-9.79l3.704 3.704 3.705-3.704v9.79h.264l1.588-1.323V11.377l-1.059-.794-4.498 4.498-4.498-4.498Z" style="display:inline;fill:#c8ab37;fill-opacity:1;stroke:#000;stroke-width:.26458335px;stroke-linecap:butt;stroke-linejoin:miter;stroke-opacity:1"/><path d="M16.933 8.599a8.334 8.334 0 1 0 0 16.668 8.334 8.334 0 0 0 0-16.668zm2.142-2.435a10.98 10.98 0 0 1 3.958 1.64l1.47-2.2a13.626 13.626 0 0 1 3.76 3.76l-2.2 1.47a10.98 10.98 0 0 1 1.64 3.957l2.594-.516c.35 1.755.35 3.562 0 5.316l-2.595-.516a10.98 10.98 0 0 1-1.639 3.958l2.2 1.47a13.626 13.626 0 0 1-3.76 3.76l-1.47-2.2a10.98 10.98 0 0 1-3.957 1.64l.516 2.594c-1.755.35-3.562.35-5.317 0l.516-2.595a10.98 10.98 0 0 1-3.958-1.64l-1.47 2.2a13.626 13.626 0 0 1-3.76-3.758l2.2-1.47a10.98 10.98 0 0 1-1.639-3.958l-2.595.516a13.626 13.626 0 0 1 0-5.317l2.595.516a10.98 10.98 0 0 1 1.64-3.958l-2.2-1.47a13.626 13.626 0 0 1 3.76-3.76l1.47 2.2a10.98 10.98 0 0 1 3.957-1.639l-.516-2.595c1.755-.349 3.562-.349 5.317 0z" style="display:inline;opacity:1;fill:red;fill-opacity:1;fill-rule:nonzero;stroke:#000;stroke-width:.26511249;stroke-linecap:butt;stroke-linejoin:miter;stroke-miterlimit:4;stroke-dasharray:none;stroke-dashoffset:0;stroke-opacity:1;paint-order:markers fill stroke"/></g></svg>